<svg width="32" height="32" viewBox="0 0 32 32" fill="none" xmlns="http://www.w3.org/2000/svg">
<path d="M26.9199 18.7467L25.4133 16.24C25.0799 15.6933 24.7866 14.64 24.7866 14V11.5067C24.7866 6.66667 20.8533 2.73334 16.0266 2.73334C11.1866 2.74667 7.25328 6.66667 7.25328 11.5067V13.9867C7.25328 14.6267 6.95994 15.68 6.63995 16.2267L5.13328 18.7333C4.55994 19.7067 4.42661 20.8133 4.78661 21.7733C5.14661 22.7467 5.95994 23.52 7.02661 23.8667C8.46661 24.3467 9.91995 24.6933 11.3999 24.9467C11.5466 24.9733 11.6933 24.9867 11.8399 25.0133C12.0266 25.04 12.2266 25.0667 12.4266 25.0933C12.7733 25.1467 13.1199 25.1867 13.4799 25.2133C14.3199 25.2933 15.1733 25.3333 16.0266 25.3333C16.8666 25.3333 17.7066 25.2933 18.5333 25.2133C18.8399 25.1867 19.1466 25.16 19.4399 25.12C19.6799 25.0933 19.9199 25.0667 20.1599 25.0267C20.3066 25.0133 20.4533 24.9867 20.5999 24.96C22.0933 24.72 23.5733 24.3467 25.0133 23.8667C26.0399 23.52 26.8266 22.7467 27.1999 21.76C27.5733 20.76 27.4666 19.6667 26.9199 18.7467ZM16.9999 13.3333C16.9999 13.8933 16.5466 14.3467 15.9866 14.3467C15.4266 14.3467 14.9733 13.8933 14.9733 13.3333V9.2C14.9733 8.64 15.4266 8.18667 15.9866 8.18667C16.5466 8.18667 16.9999 8.64 16.9999 9.2V13.3333Z" fill="url(#paint0_linear_515_469)"/>
<path d="M19.7736 26.68C19.2136 28.2267 17.7336 29.3334 16.0002 29.3334C14.9469 29.3334 13.9069 28.9067 13.1736 28.1467C12.7469 27.7467 12.4269 27.2134 12.2402 26.6667C12.4136 26.6934 12.5869 26.7067 12.7736 26.7334C13.0802 26.7734 13.4002 26.8134 13.7202 26.84C14.4802 26.9067 15.2536 26.9467 16.0269 26.9467C16.7869 26.9467 17.5469 26.9067 18.2936 26.84C18.5736 26.8134 18.8536 26.8 19.1202 26.76C19.3336 26.7334 19.5469 26.7067 19.7736 26.68Z" fill="url(#paint1_linear_515_469)"/>
<defs>
<linearGradient id="paint0_linear_515_469" x1="4.89136" y1="3.08014" x2="26.2278" y2="25.9818" gradientUnits="userSpaceOnUse">
<stop stop-color="#068CD5"/>
<stop offset="1" stop-color="#4500D8"/>
</linearGradient>
<linearGradient id="paint1_linear_515_469" x1="12.3407" y1="26.7076" x2="13.8545" y2="31.251" gradientUnits="userSpaceOnUse">
<stop stop-color="#068CD5"/>
<stop offset="1" stop-color="#4500D8"/>
</linearGradient>
</defs>
</svg>
